<svg width="23" height="23" viewBox="0 0 23 23" fill="none" xmlns="http://www.w3.org/2000/svg">
<path d="M11.7395 0.931641C5.6745 0.931641 0.739502 5.86664 0.739502 11.9316C0.739502 17.9966 5.6745 22.9316 11.7395 22.9316C17.8045 22.9316 22.7395 17.9966 22.7395 11.9316C22.7395 5.86664 17.8045 0.931641 11.7395 0.931641ZM17.7395 12.9316H12.7395V17.9316C12.7395 18.4816 12.2895 18.9316 11.7395 18.9316C11.1895 18.9316 10.7395 18.4816 10.7395 17.9316V12.9316H5.7395C5.1895 12.9316 4.7395 12.4816 4.7395 11.9316C4.7395 11.3816 5.1895 10.9316 5.7395 10.9316H10.7395V5.93164C10.7395 5.38164 11.1895 4.93164 11.7395 4.93164C12.2895 4.93164 12.7395 5.38164 12.7395 5.93164V10.9316H17.7395C18.2895 10.9316 18.7395 11.3816 18.7395 11.9316C18.7395 12.4816 18.2895 12.9316 17.7395 12.9316Z" fill="#FF0038"/>
</svg>
